<?xml version="1.0" standalone="no"?>
<!DOCTYPE svg PUBLIC "-//W3C//DTD SVG 20010904//EN"
 "http://www.w3.org/TR/2001/REC-SVG-20010904/DTD/svg10.dtd">
<svg version="1.0" xmlns="http://www.w3.org/2000/svg"
 width="1024.000000pt" height="1024.000000pt" viewBox="0 0 1024.000000 1024.000000"
 preserveAspectRatio="xMidYMid meet">

<g transform="translate(0.000000,1024.000000) scale(0.100000,-0.100000)"
fill="#000000" stroke="none">
<path d="M4072 7465 c-12 -9 -22 -21 -22 -27 0 -9 239 -360 1292 -1903 101
-148 224 -328 273 -400 48 -71 164 -241 257 -377 l170 -248 274 0 c151 0 274
3 274 6 0 3 -105 159 -234 347 -128 188 -423 621 -656 962 -513 753 -878 1287
-1020 1495 l-106 155 -240 3 c-204 2 -242 0 -262 -13z"/>
<path d="M4465 5632 c-197 -279 -454 -642 -572 -807 -117 -165 -421 -595 -676
-955 l-464 -655 75 -225 c69 -210 98 -270 127 -270 7 0 207 276 445 613 515
727 966 1364 1301 1837 135 190 260 367 278 393 l33 48 -87 257 c-48 141 -90
260 -94 264 -3 4 -168 -221 -366 -500z"/>
<path d="M4102 4138 c-82 -123 -152 -229 -156 -235 -6 -10 341 -13 1721 -13
l1728 0 133 200 c112 169 133 206 130 233 l-3 32 -1702 3 -1703 2 -148 -222z"/>
</g>
</svg>
